<svg width="104" height="64" viewBox="0 0 104 64" fill="none" xmlns="http://www.w3.org/2000/svg">
  <path d="M8 14C8 10.686 10.686 8 14 8H40C44.418 8 48 11.582 48 16V46C48 42.686 45.314 40 42 40H14C10.686 40 8 42.686 8 46V14Z" fill="#60A5FA"/>
  <path d="M48 16C48 11.582 51.582 8 56 8H82C85.314 8 88 10.686 88 14V46C88 42.686 85.314 40 82 40H54C50.686 40 48 42.686 48 46V16Z" fill="#3B82F6"/>
  <path d="M56 0H86C94.837 0 102 6.716 102 15C102 23.284 94.837 30 86 30H76L68 38V30H56C47.163 30 40 23.284 40 15C40 6.716 47.163 0 56 0Z" fill="#2DD4BF"/>
  <circle cx="62" cy="15" r="2" fill="#020617"/>
  <circle cx="70" cy="15" r="2" fill="#020617"/>
  <circle cx="78" cy="15" r="2" fill="#020617"/>
</svg>
